<svg width="72" height="72" viewBox="0 0 72 72" fill="none" xmlns="http://www.w3.org/2000/svg">
<path d="M3.72 10.2093H6.12L14.592 20.1933V10.2093H16.992V23.5773H14.592L6.12 13.6173V23.5773H3.72V10.2093Z" fill="white"/>
<path d="M22.2444 19.4733C23.2284 20.6013 24.3084 21.4413 27.0444 21.5613C29.2524 21.6573 31.3164 21.4653 31.5084 20.1693C31.7484 18.7293 30.5004 17.9133 27.6444 17.5533C24.0924 17.1213 20.0364 16.9533 20.0364 13.7373C20.0364 9.80128 25.9644 9.92128 27.8844 10.0413C30.4284 10.2093 32.7084 11.2173 33.6684 14.0733H31.2684C30.9084 13.2333 30.1164 12.3213 27.1164 12.1773C25.5324 12.1053 22.6284 12.2493 22.4364 13.4733C22.2444 14.7213 23.8524 14.9133 26.7324 15.2733C30.2604 15.7053 33.9324 16.4013 33.9324 19.9773C33.9324 24.0813 28.3404 23.8173 26.4204 23.6973C22.3404 23.4333 20.6604 21.3693 19.8684 19.4733H22.2444Z" fill="white"/>
<path d="M38.8896 10.2093L44.0976 18.3213H44.3376L49.5456 10.2093H52.1136L52.0896 10.2573V23.5773H49.6896V14.0013L45.5136 20.5053H42.9216L38.7696 14.0253V23.5773H36.3696V10.2093H38.8896Z" fill="white"/>
<path d="M13.416 29.2093C15.744 29.2093 18.216 31.6093 18.216 36.0013C18.216 40.1533 15.744 42.5773 13.416 42.5773H3.72V29.2093H13.416ZM6.168 40.3933H12.48C14.016 40.3933 15.816 38.7613 15.816 36.0013C15.816 32.9773 14.016 31.3933 12.48 31.3933H6.168V40.3933Z" fill="#FF56D0"/>
<path d="M20.3841 29.2093H33.1761V31.3933H22.7841V34.9693H32.9361V37.1533H22.7841V40.3933H33.6561V42.5773H20.3841V29.2093Z" fill="#FF56D0"/>
<path d="M44.0379 42.5773H39.8859L34.8459 29.2093H37.4139L41.6379 40.3933H42.2859L46.5099 29.2093H49.0779L44.0379 42.5773Z" fill="#FF56D0"/>
<path d="M17.496 57.1853C16.656 59.9213 14.04 61.8173 10.2 61.8173C5.592 61.8173 3 58.7213 3 54.8813C3 50.8253 5.592 47.7293 10.2 47.7293C14.424 47.7293 16.896 49.9133 17.472 53.0573H15.072C14.64 51.0413 13.152 49.8893 10.224 49.8893C6.792 49.8893 5.4 51.6893 5.4 54.8813C5.4 57.8573 6.792 59.6573 10.224 59.6573C12.6 59.6573 14.448 58.7693 15.072 57.1853H17.496Z" fill="white"/>
<path d="M26.2575 59.6573C29.6415 59.6573 31.1535 57.7373 31.1535 54.7853C31.1535 51.8333 29.6415 49.9133 26.2575 49.9133C22.8495 49.9133 21.3375 51.8333 21.3375 54.7853C21.3375 57.7373 22.8495 59.6573 26.2575 59.6573ZM18.9375 54.7853C18.9375 50.9213 21.5535 47.7533 26.2575 47.7533C30.9375 47.7533 33.5535 50.9213 33.5535 54.7853C33.5535 58.6493 30.9375 61.8173 26.2575 61.8173C21.5535 61.8173 18.9375 58.6493 18.9375 54.7853Z" fill="white"/>
<path d="M35.7122 48.2093H38.1122L46.5842 58.1933V48.2093H48.9842V61.5773H46.5842L38.1122 51.6173V61.5773H35.7122V48.2093Z" fill="white"/>
<path d="M51.8606 48.2093H64.6526V50.3933H54.2606V53.9693H64.4126V56.1533H54.2606V61.5773H51.8606V48.2093Z" fill="white"/>
<path d="M68.0857 62.0573C66.8137 62.0573 66.3337 61.4093 66.3337 60.6173C66.3337 59.8013 66.8137 59.1533 68.0857 59.1533C69.4057 59.1533 69.8857 59.8013 69.8857 60.6173C69.8857 61.4093 69.4057 62.0573 68.0857 62.0573Z" fill="white"/>
</svg>
